<?xml version="1.0" encoding="UTF-8"?>
<svg id="Layer_1" data-name="Layer 1" xmlns="http://www.w3.org/2000/svg" xmlns:xlink="http://www.w3.org/1999/xlink" viewBox="0 0 1648.88 2049.33">
  <defs>
    <style>
      .cls-1 {
        fill: #ffeb3f;
      }

      .cls-1, .cls-2, .cls-3, .cls-4, .cls-5, .cls-6, .cls-7, .cls-8, .cls-9, .cls-10, .cls-11, .cls-12, .cls-13 {
        stroke-width: 0px;
      }

      .cls-1, .cls-2, .cls-3, .cls-4, .cls-6, .cls-8, .cls-11, .cls-12, .cls-13 {
        fill-rule: evenodd;
      }

      .cls-2 {
        fill: #fee400;
      }

      .cls-14 {
        mask: url(#mask-2);
      }

      .cls-3 {
        fill: url(#linear-gradient-3);
      }

      .cls-15 {
        mask: url(#mask-3);
      }

      .cls-4 {
        fill: #ffeb41;
      }

      .cls-5 {
        fill: url(#linear-gradient-5);
      }

      .cls-6 {
        fill: url(#linear-gradient);
      }

      .cls-7 {
        fill: url(#linear-gradient-7);
      }

      .cls-8 {
        fill: url(#linear-gradient-2);
      }

      .cls-9 {
        fill: url(#linear-gradient-9);
      }

      .cls-10 {
        fill: url(#linear-gradient-8);
      }

      .cls-16 {
        mask: url(#mask-1);
      }

      .cls-17 {
        mask: url(#mask);
      }

      .cls-11 {
        fill: #ffec43;
      }

      .cls-12 {
        fill: url(#linear-gradient-6);
      }

      .cls-13 {
        fill: url(#linear-gradient-4);
      }
    </style>
    <linearGradient id="linear-gradient" x1="444.58" y1="2127.33" x2="444.6" y2="2477.31" gradientTransform="translate(88.31 4027.46) scale(1.66 -1.66)" gradientUnits="userSpaceOnUse">
      <stop offset="0" stop-color="#7e4c2b"/>
      <stop offset="1" stop-color="#ffe500"/>
    </linearGradient>
    <linearGradient id="linear-gradient-2" x1="856.15" y1="1856.99" x2="-53.34" y2="1856.99" xlink:href="#linear-gradient"/>
    <linearGradient id="linear-gradient-3" x1="685.37" y1="1265.56" x2="685.37" y2="2247.18" xlink:href="#linear-gradient"/>
    <linearGradient id="linear-gradient-4" x1="61.44" y1="1826.95" x2="509.23" y2="1109.53" xlink:href="#linear-gradient"/>
    <linearGradient id="linear-gradient-5" x1="858.72" y1="1102.66" x2="47.75" y2="1675.67" gradientTransform="translate(88.31 4027.46) scale(1.66 -1.66)" gradientUnits="userSpaceOnUse">
      <stop offset="0" stop-color="#fff"/>
      <stop offset="1" stop-color="#fff" stop-opacity="0"/>
    </linearGradient>
    <mask id="mask" x="0" y="1268.22" width="1482.81" height="781.12" maskUnits="userSpaceOnUse">
      <g id="id134">
        <rect class="cls-5" y="1268.22" width="1482.81" height="781.12"/>
      </g>
    </mask>
    <linearGradient id="linear-gradient-6" x1="444.58" y1="1531.34" x2="444.58" y2="2033.35" gradientTransform="translate(88.31 4027.46) scale(1.66 -1.66)" gradientUnits="userSpaceOnUse">
      <stop offset="0" stop-color="#7e4c2b"/>
      <stop offset="1" stop-color="#ceab10"/>
    </linearGradient>
    <linearGradient id="linear-gradient-7" x1="-188.64" y1="2254.14" x2="729.12" y2="1865.58" xlink:href="#linear-gradient-5"/>
    <mask id="mask-1" x="-.08" y="400.45" width="1381.71" height="564.56" maskUnits="userSpaceOnUse">
      <g id="id136">
        <rect class="cls-7" x="-.08" y="400.45" width="1381.71" height="564.56"/>
      </g>
    </mask>
    <linearGradient id="linear-gradient-8" x1="1289.26" y1="2533.16" x2="577.18" y2="1385" xlink:href="#linear-gradient-5"/>
    <mask id="mask-2" x="1107.03" y="403.5" width="541.85" height="1584.61" maskUnits="userSpaceOnUse">
      <g id="id138">
        <rect class="cls-10" x="1107.03" y="403.5" width="541.85" height="1584.61"/>
      </g>
    </mask>
    <linearGradient id="linear-gradient-9" x1="444.58" y1="2448.96" x2="444.58" y2="2209.1" xlink:href="#linear-gradient-5"/>
    <mask id="mask-3" x="305.92" y="-.08" width="1036.92" height="406.3" maskUnits="userSpaceOnUse">
      <g id="id140">
        <rect class="cls-9" x="305.92" y="-.08" width="1036.92" height="406.3"/>
      </g>
    </mask>
  </defs>
  <g id="_1367304927824" data-name=" 1367304927824">
    <path class="cls-6" d="M460.17,270.96c0-64.26,52.57-116.84,116.84-116.84h494.78c64.22,0,116.8,52.57,116.8,116.84v129.57h90.07c21,0,41.59,1.75,61.68,5.18l2.42.42v-135.17C1342.75,121.93,1220.82,0,1071.79,0h-494.78c-149.03,0-271.01,121.93-271.01,270.96v135.17c20.84-3.67,42.26-5.6,64.14-5.6h90.03v-129.57h0ZM1342.63,412.9c-.75-2.34-1.5-4.72-2.26-7.06.75,2.34,1.5,4.72,2.26,7.06Z"/>
    <path class="cls-8" d="M1050.79,766.08c57.04.13,118.93,2.38,160.52,42.93,37.46,36.45,59.84,58.25,112.24,109.32,29.02,28.31,55.2,57.92,59.17,89.28,13.2-128.53,27.48-390.47-42.38-601.89-20.09-3.42-40.67-5.18-61.68-5.18H370.14c-47.31,0-92.58,8.98-134.25,25.31C98.17,479.88,0,614.38,0,770.68v734.72c85.94-422.25,351.14-612.29,351.14-612.29,35.16-34.28,55.7-54.28,86.31-84.1,41.59-40.55,103.48-42.8,160.56-42.93,75.46-.29,150.91-.54,226.37-.79,75.46.25,150.95.5,226.41.79h0Z"/>
    <path class="cls-3" d="M1382.97,1021.01c-1.75,20.59-5.22,42.38-10.19,65.23-58.67,268.38-329.47,673.17-548.4,744.41-8.94-2.92-18-6.39-27.1-10.4,106.61,52.99,388.8,176.51,685.53,167.28,99.84-66.48,165.99-180.06,165.99-308.34v-908.52c0-156.3-98.17-290.8-235.89-344.83-23.18-9.06-47.48-15.91-72.57-20.13,69.86,211.42,55.58,473.36,42.38,601.89.54,4.43.67,8.89.25,13.4h0Z"/>
    <path class="cls-13" d="M752.47,1796.78c-221.98-134.38-466.43-539.34-486.68-775.77-3.13-36.37,26.31-70.36,59.46-102.68,9.52-9.31,18.04-17.62,25.89-25.22,0,0-265.2,190.04-351.14,612.29v173.8C0,1882.76,166.53,2049.33,370.14,2049.33h908.52c75.29,0,145.52-22.8,204.15-61.8-296.73,9.23-578.93-114.29-685.53-167.28-14.78-6.47-29.77-14.36-44.81-23.47h0Z"/>
    <g class="cls-17">
      <path class="cls-4" d="M74.41,1268.22c-30.02,68.94-56.25,147.82-74.41,237.18v173.8c0,203.57,166.53,370.14,370.14,370.14h908.52c55.58,0,108.4-12.44,155.84-34.62,21.42-11.07,38.25-20.5,48.31-27.18-206.07,42.93-764.37,33.03-951.44-80.22-183.27-110.95-381.91-406.38-456.95-639.1h0Z"/>
    </g>
    <path class="cls-12" d="M824.38,993.95c99.88,0,180.85,80.97,180.85,180.85,0,69.99-39.75,130.7-97.96,160.77v176.8c0,18.25-14.91,33.16-33.16,33.16h-99.47c-18.25,0-33.16-14.91-33.16-33.16v-176.8c-58.17-30.07-97.96-90.78-97.96-160.77,0-99.88,80.97-180.85,180.85-180.85h0Z"/>
    <g class="cls-16">
      <path class="cls-2" d="M1237.9,594.79h143.65c-7.89-61.76-20.25-123.64-38.92-181.9-.75-2.34-1.5-4.72-2.26-7.06-.04-.04-.04-.08-.04-.13-20.09-3.42-40.67-5.18-61.68-5.18H370.14c-21.88,0-43.3,1.92-64.14,5.6-24.26,4.26-47.69,10.94-70.11,19.71C98.17,479.88,0,614.38,0,770.68v194.26c0-156.3,98.17-290.8,235.89-344.83,41.67-16.33,86.94-25.31,134.25-25.31h867.76Z"/>
    </g>
    <g class="cls-14">
      <path class="cls-1" d="M1340.37,405.84c.75,2.34,1.5,4.72,2.3,7.06-.79-2.38-1.55-4.72-2.3-7.06ZM1478.34,1378.37c-1.17,66.52-24.26,412.86-371.22,559.88,37,10.15,75.92,19.42,116.17,27.1,82.26,15.7,170.25,24.97,259.52,22.17,99.84-66.48,165.99-180.06,165.99-308.34v-908.52c0-156.3-98.17-290.8-235.89-344.83-22.42-8.77-45.89-15.45-70.15-19.71l-2.42-.42c-4.68-.79-9.31-1.5-14.03-2.13,6.1,4.47,12.03,9.1,17.79,13.91,81.89,68.06,134.25,170.54,134.25,284.7v676.18h0ZM1340.33,405.72s0,.08.04.13c-.04-.04-.04-.08-.04-.13ZM1344.09,417.49c-.46-1.5-.96-3.05-1.42-4.59.46,1.55.96,3.05,1.42,4.59Z"/>
    </g>
    <g class="cls-15">
      <path class="cls-11" d="M373.65,270.96c0-111.7,91.62-203.36,203.36-203.36h494.78c111.7,0,203.36,91.66,203.36,203.36v129.57h3.51c16.12,0,32.03,1.04,47.65,3.05,4.72.63,9.35,1.34,14.03,2.13.79.13,1.63.25,2.42.42v-135.17C1342.75,121.93,1220.82,0,1071.79,0h-494.78c-149.03,0-271.01,121.93-271.01,270.96v135.17c20.84-3.67,42.26-5.6,64.14-5.6h3.51v-129.57h0Z"/>
    </g>
  </g>
</svg>