<?xml version="1.0" encoding="UTF-8"?>
<svg id="Calque_1" data-name="Calque 1" xmlns="http://www.w3.org/2000/svg" viewBox="0 0 1920 451.85">
  <defs>
    <style>
      .cls-1 {
        letter-spacing: -.03em;
      }

      .cls-2 {
        stroke-width: 0px;
      }

      .cls-2, .cls-3, .cls-4 {
        fill: #423636;
      }Q

      .cls-5 {
        letter-spacing: -.04em;
      }

      .cls-6 {
        letter-spacing: -.01em;
      }

      .cls-3 {
        font-family: MontserratRoman-Light, Montserrat;
        font-size: 118.42px;
        font-variation-settings: 'wght' 300;
        font-weight: 300;
      }

      .cls-4 {
        font-family: Raleway-Bold, Raleway;
        font-size: 188.84px;
        font-weight: 700;
      }
    </style>
  </defs>
  <path class="cls-2" d="M212.49,451.85c-3.31,0-6.63-.86-9.6-2.58C77.34,376.46,29.65,272.1,11.75,197.38-7.6,116.6,2.68,53.36,3.12,50.71c1.07-6.34,5.25-11.72,11.14-14.32,1.91-.84,47.65-20.79,119.28-30.84,65.94-9.26,167.41-11.48,276.31,30.49,6.01,2.32,10.46,7.51,11.82,13.81,1.36,6.3-.54,12.86-5.07,17.46l-201.17,204.3c-3.58,3.63-8.46,5.69-13.56,5.71h-.07c-5.07,0-9.94-2.02-13.53-5.6l-64.59-64.59c-7.47-7.47-7.47-19.58,0-27.05,7.47-7.47,19.58-7.47,27.05,0l50.96,50.96L368.2,61.93c-155.27-49.38-291.45-7.86-328.57,5.61-1.84,20.13-3.8,67.11,9.68,122.39,22.9,93.94,77.77,168.07,163.17,220.51,125.11-76.89,162.51-187.9,171.67-268.45,1.19-10.5,10.66-18.05,21.17-16.84,10.5,1.19,18.04,10.67,16.84,21.17-10.39,91.29-53.53,217.95-200.09,302.94-2.97,1.72-6.28,2.58-9.6,2.58Z"/>
  <g>
    <text class="cls-3" transform="translate(519.76 354.18)"><tspan x="0" y="0">trusted vault</tspan></text>
    <text class="cls-4" transform="translate(519.76 222.16)"><tspan class="cls-5" x="0" y="0">P</tspan><tspan class="cls-6" x="109.15" y="0">A</tspan><tspan x="233.97" y="0">SSMAN</tspan><tspan class="cls-1" x="899.81" y="0">A</tspan><tspan x="1021.8" y="0">GER</tspan></text>
  </g>
</svg>