<?xml version="1.0" encoding="UTF-8"?>
<svg id="Calque_1" data-name="Calque 1" xmlns="http://www.w3.org/2000/svg" viewBox="0 0 1920 451.85">
  <defs>
    <style>
      .cls-1 {
        fill: #423636;
        stroke-width: 0px;
      }
    </style>
  </defs>
  <path class="cls-1" d="M212.49,451.85c-3.31,0-6.63-.86-9.6-2.58C77.34,376.46,29.65,272.1,11.75,197.38-7.6,116.6,2.68,53.36,3.12,50.71c1.07-6.34,5.25-11.72,11.14-14.32,1.91-.84,47.65-20.79,119.28-30.84,65.94-9.26,167.41-11.48,276.31,30.49,6.01,2.32,10.46,7.51,11.82,13.81,1.36,6.3-.54,12.86-5.07,17.46l-201.17,204.3c-3.58,3.63-8.46,5.69-13.56,5.71h-.07c-5.07,0-9.94-2.02-13.53-5.6l-64.59-64.59c-7.47-7.47-7.47-19.58,0-27.05,7.47-7.47,19.58-7.47,27.05,0l50.96,50.96L368.2,61.93c-155.27-49.38-291.45-7.86-328.57,5.61-1.84,20.13-3.8,67.11,9.68,122.39,22.9,93.94,77.77,168.07,163.17,220.51,125.11-76.89,162.51-187.9,171.67-268.45,1.19-10.5,10.66-18.05,21.17-16.84,10.5,1.19,18.04,10.67,16.84,21.17-10.39,91.29-53.53,217.95-200.09,302.94-2.97,1.72-6.28,2.58-9.6,2.58Z"/>
  <g>
    <g>
      <path class="cls-1" d="M522.13,297.46v-5.09h36.95v5.09h-36.95ZM550.31,354.66c-5.45,0-9.61-1.5-12.49-4.5-2.88-3-4.32-7.11-4.32-12.32v-58.98h5.92v58.38c0,3.95.99,6.99,2.96,9.12,1.97,2.13,4.81,3.2,8.53,3.2s7.06-1.14,9.59-3.43l2.49,4.14c-1.58,1.5-3.49,2.61-5.74,3.32-2.25.71-4.56,1.07-6.93,1.07Z"/>
      <path class="cls-1" d="M579.44,354.18v-61.82h5.68v16.93l-.59-1.89c1.74-4.97,4.66-8.8,8.76-11.49,4.1-2.68,9.24-4.03,15.4-4.03v5.8c-.24,0-.47-.02-.71-.06-.24-.04-.47-.06-.71-.06-6.87,0-12.24,2.15-16.11,6.46-3.87,4.3-5.8,10.28-5.8,17.94v32.21h-5.92Z"/>
      <path class="cls-1" d="M651.21,354.66c-5.29,0-9.87-.97-13.74-2.9-3.87-1.93-6.85-4.86-8.94-8.76-2.09-3.91-3.14-8.74-3.14-14.51v-36.12h5.92v35.65c0,6.95,1.78,12.24,5.33,15.87,3.55,3.63,8.57,5.45,15.04,5.45,4.66,0,8.68-.99,12.08-2.96,3.39-1.97,6-4.75,7.82-8.35,1.82-3.59,2.72-7.83,2.72-12.73v-32.92h5.92v61.82h-5.68v-17.17l.83,2.01c-1.82,4.82-4.84,8.63-9.06,11.43-4.22,2.8-9.26,4.2-15.1,4.2Z"/>
      <path class="cls-1" d="M720.96,354.66c-5.13,0-9.93-.75-14.39-2.25-4.46-1.5-7.92-3.39-10.36-5.68l2.72-4.74c2.37,2.05,5.52,3.81,9.47,5.27,3.95,1.46,8.21,2.19,12.79,2.19,6.47,0,11.13-1.07,13.97-3.2s4.26-4.93,4.26-8.41c0-2.53-.73-4.52-2.19-5.98-1.46-1.46-3.42-2.58-5.86-3.38-2.45-.79-5.13-1.44-8.05-1.95-2.92-.51-5.84-1.08-8.76-1.72-2.92-.63-5.61-1.54-8.05-2.72-2.45-1.18-4.4-2.82-5.86-4.92-1.46-2.09-2.19-4.87-2.19-8.35,0-3.16.87-6,2.6-8.53,1.74-2.53,4.34-4.56,7.82-6.1,3.47-1.54,7.82-2.31,13.03-2.31,3.87,0,7.76.55,11.67,1.66,3.91,1.11,7.08,2.57,9.53,4.38l-2.72,4.74c-2.6-1.97-5.53-3.39-8.76-4.26-3.24-.87-6.51-1.3-9.83-1.3-6,0-10.4,1.11-13.2,3.32-2.8,2.21-4.2,4.97-4.2,8.29,0,2.6.73,4.68,2.19,6.22,1.46,1.54,3.41,2.72,5.86,3.55,2.45.83,5.13,1.5,8.05,2.01,2.92.51,5.84,1.09,8.76,1.72,2.92.63,5.6,1.52,8.05,2.66,2.45,1.15,4.4,2.72,5.86,4.74,1.46,2.01,2.19,4.72,2.19,8.11s-.93,6.36-2.78,8.88c-1.86,2.53-4.6,4.5-8.23,5.92-3.63,1.42-8.09,2.13-13.38,2.13Z"/>
      <path class="cls-1" d="M751.75,297.46v-5.09h36.95v5.09h-36.95ZM779.94,354.66c-5.45,0-9.61-1.5-12.49-4.5-2.88-3-4.32-7.11-4.32-12.32v-58.98h5.92v58.38c0,3.95.99,6.99,2.96,9.12,1.97,2.13,4.81,3.2,8.53,3.2s7.06-1.14,9.59-3.43l2.49,4.14c-1.58,1.5-3.49,2.61-5.74,3.32-2.25.71-4.56,1.07-6.93,1.07Z"/>
      <path class="cls-1" d="M834.17,354.66c-6.24,0-11.74-1.34-16.52-4.03-4.78-2.68-8.53-6.39-11.25-11.13-2.72-4.74-4.09-10.14-4.09-16.22s1.28-11.58,3.85-16.28c2.56-4.7,6.1-8.39,10.6-11.07,4.5-2.68,9.55-4.03,15.16-4.03s10.64,1.3,15.1,3.91c4.46,2.61,7.97,6.26,10.54,10.96,2.56,4.7,3.85,10.12,3.85,16.28,0,.24-.02.49-.06.77-.04.28-.06.57-.06.89h-54.59v-4.62h51.4l-2.37,2.25c.08-4.81-.93-9.14-3.02-12.97-2.09-3.83-4.91-6.83-8.47-9-3.55-2.17-7.66-3.26-12.32-3.26s-8.67,1.09-12.26,3.26c-3.59,2.17-6.42,5.17-8.47,9-2.05,3.83-3.08,8.19-3.08,13.09v1.07c0,5.05,1.12,9.53,3.38,13.44,2.25,3.91,5.35,6.95,9.3,9.12,3.95,2.17,8.45,3.26,13.5,3.26,3.95,0,7.64-.71,11.07-2.13,3.43-1.42,6.34-3.59,8.7-6.51l3.43,3.91c-2.69,3.32-6.06,5.82-10.13,7.52-4.07,1.7-8.47,2.55-13.2,2.55Z"/>
      <path class="cls-1" d="M903.57,354.66c-5.76,0-10.95-1.32-15.57-3.97-4.62-2.64-8.27-6.34-10.95-11.07-2.68-4.74-4.03-10.18-4.03-16.34s1.34-11.7,4.03-16.4c2.68-4.7,6.34-8.37,10.95-11.01,4.62-2.64,9.81-3.97,15.57-3.97,5.45,0,10.36,1.26,14.74,3.79,4.38,2.53,7.85,6.12,10.42,10.78,2.56,4.66,3.85,10.26,3.85,16.82s-1.26,11.96-3.79,16.7c-2.53,4.74-5.98,8.37-10.36,10.9-4.38,2.53-9.34,3.79-14.86,3.79ZM903.92,349.33c4.74,0,8.98-1.08,12.73-3.26,3.75-2.17,6.71-5.23,8.88-9.18,2.17-3.95,3.26-8.49,3.26-13.62s-1.09-9.77-3.26-13.68c-2.17-3.91-5.13-6.95-8.88-9.12-3.75-2.17-7.99-3.26-12.73-3.26s-8.98,1.09-12.73,3.26c-3.75,2.17-6.71,5.21-8.88,9.12-2.17,3.91-3.26,8.47-3.26,13.68s1.08,9.67,3.26,13.62c2.17,3.95,5.13,7.01,8.88,9.18,3.75,2.17,7.99,3.26,12.73,3.26ZM928.91,354.18v-20.25l1.07-10.78-1.18-10.78v-46.07h5.92v87.87h-5.8Z"/>
      <path class="cls-1" d="M1005.77,354.18l-27.83-61.82h6.28l26.05,58.5h-2.84l26.29-58.5h6.04l-27.95,61.82h-6.04Z"/>
      <path class="cls-1" d="M1069.36,354.66c-4.58,0-8.55-.73-11.9-2.19-3.36-1.46-5.92-3.53-7.7-6.22-1.78-2.68-2.66-5.76-2.66-9.24,0-3.16.73-6.02,2.19-8.59,1.46-2.56,3.89-4.66,7.28-6.28,3.39-1.62,7.93-2.43,13.62-2.43h22.74v4.62h-22.62c-6.39,0-10.88,1.18-13.44,3.55-2.57,2.37-3.85,5.33-3.85,8.88,0,3.95,1.5,7.11,4.5,9.47,3,2.37,7.22,3.55,12.67,3.55s9.61-1.18,13.2-3.55c3.59-2.37,6.26-5.8,7.99-10.3l1.66,4.03c-1.66,4.5-4.48,8.07-8.47,10.72-3.99,2.65-9.06,3.97-15.22,3.97ZM1091.62,354.18v-14.09l-.24-2.13v-23.21c0-5.76-1.56-10.14-4.68-13.14-3.12-3-7.68-4.5-13.68-4.5-4.26,0-8.23.73-11.9,2.19-3.67,1.46-6.81,3.34-9.42,5.62l-2.96-4.26c3.08-2.76,6.79-4.91,11.13-6.45,4.34-1.54,8.88-2.31,13.62-2.31,7.66,0,13.54,1.94,17.65,5.8,4.1,3.87,6.16,9.63,6.16,17.29v39.2h-5.68Z"/>
      <path class="cls-1" d="M1146.81,354.66c-5.29,0-9.87-.97-13.74-2.9-3.87-1.93-6.85-4.86-8.94-8.76-2.09-3.91-3.14-8.74-3.14-14.51v-36.12h5.92v35.65c0,6.95,1.78,12.24,5.33,15.87,3.55,3.63,8.57,5.45,15.04,5.45,4.66,0,8.68-.99,12.08-2.96,3.39-1.97,6-4.75,7.82-8.35,1.82-3.59,2.72-7.83,2.72-12.73v-32.92h5.92v61.82h-5.68v-17.17l.83,2.01c-1.82,4.82-4.84,8.63-9.06,11.43-4.22,2.8-9.26,4.2-15.1,4.2Z"/>
      <path class="cls-1" d="M1200.93,354.18v-87.87h5.92v87.87h-5.92Z"/>
      <path class="cls-1" d="M1221.65,297.46v-5.09h36.95v5.09h-36.95ZM1249.84,354.66c-5.45,0-9.61-1.5-12.49-4.5-2.88-3-4.32-7.11-4.32-12.32v-58.98h5.92v58.38c0,3.95.99,6.99,2.96,9.12,1.97,2.13,4.81,3.2,8.53,3.2s7.06-1.14,9.59-3.43l2.49,4.14c-1.58,1.5-3.49,2.61-5.74,3.32-2.25.71-4.56,1.07-6.93,1.07Z"/>
    </g>
    <g>
      <path class="cls-1" d="M533.73,222.16V88.08h56.84c6.17,0,11.86,1.26,17.09,3.78,5.22,2.52,9.73,5.92,13.5,10.2,3.78,4.28,6.7,9.06,8.78,14.35s3.12,10.7,3.12,16.24c0,7.43-1.7,14.57-5.1,21.43-3.4,6.86-8.21,12.43-14.45,16.71-6.23,4.28-13.5,6.42-21.81,6.42h-31.91v44.94h-26.06ZM559.79,154.36h30.21c3.27,0,6.17-.88,8.69-2.64,2.52-1.76,4.5-4.31,5.95-7.65,1.45-3.33,2.17-7.14,2.17-11.42,0-4.66-.85-8.59-2.55-11.8-1.7-3.21-3.9-5.67-6.61-7.36-2.71-1.7-5.64-2.55-8.78-2.55h-29.08v43.43Z"/>
      <path class="cls-1" d="M678.19,88.08h26.44l49.29,134.08h-26.81l-11.14-33.42h-49.23l-11.2,33.42h-26.81l49.48-134.08ZM709.86,170.41l-18.44-55.33-18.54,55.33h36.98Z"/>
      <path class="cls-1" d="M846.83,123.2c-.88-.88-2.49-2.04-4.82-3.49-2.33-1.45-5.16-2.93-8.5-4.44-3.34-1.51-6.96-2.77-10.86-3.78-3.9-1.01-7.87-1.51-11.9-1.51-7.05,0-12.37,1.29-15.96,3.85-3.59,2.57-5.38,6.29-5.38,11.18,0,3.64,1.13,6.52,3.4,8.65s5.67,3.94,10.2,5.45,10.2,3.13,17,4.88c8.81,2.13,16.46,4.73,22.94,7.8,6.48,3.07,11.45,7.08,14.92,12.03,3.46,4.95,5.19,11.55,5.19,19.82,0,7.02-1.32,13.03-3.97,18.04-2.64,5.01-6.26,9.12-10.86,12.31-4.6,3.19-9.88,5.51-15.86,6.95-5.98,1.44-12.31,2.16-18.98,2.16s-13.35-.69-20.02-2.08c-6.67-1.38-13.06-3.37-19.17-5.95-6.11-2.58-11.8-5.7-17.09-9.35l11.52-22.47c1.13,1.13,3.15,2.61,6.04,4.44,2.89,1.83,6.42,3.65,10.58,5.48,4.15,1.83,8.69,3.37,13.6,4.63,4.91,1.26,9.88,1.89,14.92,1.89,7.18,0,12.53-1.15,16.05-3.46,3.52-2.3,5.29-5.69,5.29-10.18,0-4.01-1.42-7.18-4.25-9.5-2.83-2.32-6.83-4.33-11.99-6.02-5.16-1.69-11.27-3.48-18.32-5.36-8.56-2.38-15.64-5.07-21.24-8.08-5.6-3.01-9.82-6.74-12.65-11.19-2.83-4.45-4.25-10.06-4.25-16.83,0-9.15,2.2-16.83,6.61-23.04,4.41-6.21,10.32-10.91,17.75-14.1,7.43-3.2,15.67-4.8,24.74-4.8,6.29,0,12.24.69,17.85,2.08,5.6,1.39,10.86,3.21,15.77,5.48,4.91,2.27,9.32,4.72,13.22,7.36l-11.52,21.15Z"/>
      <path class="cls-1" d="M962.59,123.2c-.88-.88-2.49-2.04-4.82-3.49-2.33-1.45-5.16-2.93-8.5-4.44-3.34-1.51-6.96-2.77-10.86-3.78-3.9-1.01-7.87-1.51-11.9-1.51-7.05,0-12.37,1.29-15.96,3.85-3.59,2.57-5.38,6.29-5.38,11.18,0,3.64,1.13,6.52,3.4,8.65s5.67,3.94,10.2,5.45,10.2,3.13,17,4.88c8.81,2.13,16.46,4.73,22.94,7.8,6.48,3.07,11.45,7.08,14.92,12.03,3.46,4.95,5.19,11.55,5.19,19.82,0,7.02-1.32,13.03-3.96,18.04-2.64,5.01-6.26,9.12-10.86,12.31-4.6,3.19-9.88,5.51-15.86,6.95-5.98,1.44-12.31,2.16-18.98,2.16s-13.35-.69-20.02-2.08c-6.67-1.38-13.06-3.37-19.17-5.95-6.11-2.58-11.8-5.7-17.09-9.35l11.52-22.47c1.13,1.13,3.15,2.61,6.04,4.44,2.89,1.83,6.42,3.65,10.58,5.48,4.15,1.83,8.69,3.37,13.6,4.63,4.91,1.26,9.88,1.89,14.92,1.89,7.18,0,12.53-1.15,16.05-3.46,3.52-2.3,5.29-5.69,5.29-10.18,0-4.01-1.42-7.18-4.25-9.5-2.83-2.32-6.83-4.33-11.99-6.02-5.16-1.69-11.27-3.48-18.32-5.36-8.56-2.38-15.64-5.07-21.24-8.08-5.6-3.01-9.82-6.74-12.65-11.19-2.83-4.45-4.25-10.06-4.25-16.83,0-9.15,2.2-16.83,6.61-23.04,4.41-6.21,10.32-10.91,17.75-14.1,7.43-3.2,15.67-4.8,24.74-4.8,6.29,0,12.24.69,17.85,2.08,5.6,1.39,10.86,3.21,15.77,5.48,4.91,2.27,9.32,4.72,13.22,7.36l-11.52,21.15Z"/>
      <path class="cls-1" d="M1107.99,222.16v-88l-34.56,65.53h-14.54l-34.37-65.53v88h-26.06V88.08h28.14l39.47,76.1,39.85-76.1h27.95v134.08h-25.87Z"/>
      <path class="cls-1" d="M1198.25,88.08h26.44l49.29,134.08h-26.82l-11.14-33.42h-49.23l-11.2,33.42h-26.82l49.48-134.08ZM1229.92,170.41l-18.44-55.33-18.54,55.33h36.98Z"/>
      <path class="cls-1" d="M1314.77,136.04v86.11h-26.06V88.08h20.96l69.12,88.38v-88.19h25.87v133.89h-21.53l-68.36-86.11Z"/>
      <path class="cls-1" d="M1469.23,88.08h26.44l49.29,134.08h-26.82l-11.14-33.42h-49.23l-11.2,33.42h-26.82l49.48-134.08ZM1500.9,170.41l-18.44-55.33-18.54,55.33h36.98Z"/>
      <path class="cls-1" d="M1610.3,223.1c-8.81,0-17.06-1.73-24.74-5.19-7.68-3.46-14.45-8.34-20.3-14.63-5.85-6.29-10.42-13.56-13.69-21.81-3.28-8.24-4.91-17.28-4.91-27.1,0-9.19,1.67-17.85,5-25.97,3.33-8.12,7.93-15.3,13.79-21.53,5.85-6.23,12.75-11.08,20.68-14.54,7.93-3.46,16.49-5.19,25.68-5.19,12.71,0,23.57,2.64,32.58,7.93,9,5.29,15.77,12.4,20.3,21.34l-19.45,14.35c-3.28-6.67-8-11.77-14.16-15.3-6.17-3.52-12.84-5.29-20.02-5.29-5.67,0-10.86,1.2-15.58,3.59-4.72,2.39-8.78,5.67-12.18,9.82-3.4,4.15-5.98,8.94-7.74,14.35-1.76,5.41-2.64,11.14-2.64,17.18,0,6.42.97,12.34,2.93,17.75,1.95,5.41,4.72,10.17,8.31,14.26,3.59,4.09,7.77,7.27,12.56,9.54,4.78,2.27,10.07,3.4,15.86,3.4,6.92,0,13.47-1.76,19.64-5.29,6.17-3.52,11.96-8.69,17.37-15.48v25.87c-11.21,11.96-24.3,17.94-39.28,17.94ZM1647.69,172.3h-27v-19.07h48.53v68.93h-21.53v-49.85Z"/>
      <path class="cls-1" d="M1784.59,199.31v22.85h-93.1V88.08h91.4v22.85h-65.34v32.29h56.27v21.15h-56.27v34.94h67.04Z"/>
      <path class="cls-1" d="M1804.99,222.16V88.08h59.48c6.04,0,11.68,1.26,16.9,3.78,5.22,2.52,9.75,5.92,13.6,10.2,3.84,4.28,6.8,9.06,8.88,14.35s3.12,10.7,3.12,16.24-.98,11.08-2.93,16.24c-1.95,5.16-4.75,9.73-8.4,13.69-3.65,3.97-7.93,7.02-12.84,9.16l30.59,50.42h-28.7l-27.57-44.94h-26.06v44.94h-26.06ZM1831.05,154.36h32.67c3.27,0,6.17-.97,8.69-2.93,2.52-1.95,4.53-4.56,6.04-7.84,1.51-3.27,2.27-6.92,2.27-10.95s-.88-7.87-2.64-11.14c-1.76-3.27-3.97-5.85-6.61-7.74-2.64-1.89-5.54-2.83-8.69-2.83h-31.72v43.43Z"/>
    </g>
  </g>
</svg>